<?xml version="1.0" encoding="UTF-8"?>
<svg version="1.1" xmlns="http://www.w3.org/2000/svg" width="200" height="200">
<path d="M0 0 C3.16002856 2.64759149 4.07404571 5.02659171 5.3125 8.9375 C5.5 12.875 5.5 12.875 5.3125 15.9375 C6.70275391 15.92009766 6.70275391 15.92009766 8.12109375 15.90234375 C9.31863281 15.89332031 10.51617187 15.88429688 11.75 15.875 C12.94496094 15.86339844 14.13992187 15.85179688 15.37109375 15.83984375 C18.3125 15.9375 18.3125 15.9375 19.3125 16.9375 C19.55864688 19.90949571 19.69653575 22.8805797 19.8359375 25.859375 C20.36193214 29.256783 21.26854519 31.19276068 23.3125 33.9375 C26.71155025 35.71091752 28.36321527 36.21797049 32.0625 35.125 C36.11129464 31.18867188 36.27593395 25.9486329 36.375 20.5 C36.354375 19.654375 36.33375 18.80875 36.3125 17.9375 C36.6425 17.2775 36.9725 16.6175 37.3125 15.9375 C41.9325 15.9375 46.5525 15.9375 51.3125 15.9375 C51.250625 14.720625 51.18875 13.50375 51.125 12.25 C51.14369028 6.95130492 52.90382043 4.34617957 56.625 0.625 C59.93081979 -1.45074731 61.47085207 -1.68970783 65.3125 -1.0625 C69.28721679 1.07773212 71.67764075 2.72047989 73.3125 6.9375 C73.5078125 9.296875 73.5078125 9.296875 73.4375 11.6875 C73.41945313 12.48671875 73.40140625 13.2859375 73.3828125 14.109375 C73.35960937 14.71265625 73.33640625 15.3159375 73.3125 15.9375 C74.37210937 15.91429688 75.43171875 15.89109375 76.5234375 15.8671875 C77.9114513 15.84843056 79.2994727 15.83023028 80.6875 15.8125 C81.73550781 15.78736328 81.73550781 15.78736328 82.8046875 15.76171875 C84.64147486 15.74405733 86.47851963 15.83446739 88.3125 15.9375 C90.3125 17.9375 90.3125 17.9375 90.53955078 19.81689453 C90.52384033 20.93233643 90.52384033 20.93233643 90.5078125 22.0703125 C90.49814453 23.27880859 90.49814453 23.27880859 90.48828125 24.51171875 C90.46314453 25.77435547 90.46314453 25.77435547 90.4375 27.0625 C90.42847656 27.91199219 90.41945312 28.76148437 90.41015625 29.63671875 C90.38655647 31.73709884 90.35068483 33.83733444 90.3125 35.9375 C90.92883301 35.92299805 91.54516602 35.90849609 92.18017578 35.89355469 C92.9895459 35.88227539 93.79891602 35.87099609 94.6328125 35.859375 C95.83574951 35.83762207 95.83574951 35.83762207 97.06298828 35.81542969 C101.0973459 36.03435511 103.27751672 37.97389487 106.125 40.625 C107.87291692 44.0288382 107.97400905 47.24039944 107.3125 50.9375 C105.53366957 53.96809999 104.08340989 55.48780256 101.0625 57.25 C98.55982042 57.87566989 96.69153976 58.00910147 94.140625 57.98046875 C92.87734375 57.96628906 91.6140625 57.95210937 90.3125 57.9375 C90.36579468 59.09536011 90.36579468 59.09536011 90.42016602 60.27661133 C90.57758878 63.76750712 90.72639578 67.25871817 90.875 70.75 C90.93107422 71.96494141 90.98714844 73.17988281 91.04492188 74.43164062 C91.09326172 75.59501953 91.14160156 76.75839844 91.19140625 77.95703125 C91.2385376 79.03057861 91.28566895 80.10412598 91.33422852 81.21020508 C91.3125 83.9375 91.3125 83.9375 90.3125 86.9375 C87.33327407 86.96433987 84.35428705 86.98426037 81.375 87 C80.09979492 87.01256836 80.09979492 87.01256836 78.79882812 87.02539062 C77.98994141 87.02861328 77.18105469 87.03183594 76.34765625 87.03515625 C75.5987915 87.04039307 74.84992676 87.04562988 74.07836914 87.05102539 C72.3125 86.9375 72.3125 86.9375 71.3125 85.9375 C71.02622691 82.9339046 70.86384245 79.93009893 70.69140625 76.91796875 C70.32986493 74.07409222 69.86376218 72.32277411 68.3125 69.9375 C65.19700128 68.37975064 61.7080612 68.37269378 58.3125 68.9375 C56.45660555 69.9319973 56.45660555 69.9319973 55.3125 71.9375 C54.76757276 75.32734079 54.76757276 75.32734079 54.6875 79.0625 C54.39583333 85.85416667 54.39583333 85.85416667 53.3125 86.9375 C51.12957226 87.17231693 48.94046826 87.35113323 46.75 87.5 C45.55246094 87.58378906 44.35492188 87.66757813 43.12109375 87.75390625 C42.19425781 87.81449219 41.26742187 87.87507813 40.3125 87.9375 C40.18294922 89.04158203 40.18294922 89.04158203 40.05078125 90.16796875 C39.37509857 94.86055398 38.86943751 98.16397567 36.0625 102.0625 C32.87985303 104.23248657 31.16735884 104.9375 27.3125 104.9375 C23.51693115 103.77952984 21.07831872 102.80542788 18.4375 99.8125 C16.90895104 95.9062082 16.57560064 92.10174804 16.3125 87.9375 C15.38566406 87.87691406 14.45882812 87.81632812 13.50390625 87.75390625 C11.70759766 87.62822266 11.70759766 87.62822266 9.875 87.5 C8.08255859 87.37818359 8.08255859 87.37818359 6.25390625 87.25390625 C3.3125 86.9375 3.3125 86.9375 2.3125 85.9375 C2.06658786 82.67233319 1.92826894 79.40806998 1.7890625 76.13671875 C1.28480966 72.75161156 0.78481999 71.27404041 -1.6875 68.9375 C-7.18523693 68.13656165 -7.18523693 68.13656165 -11.8984375 70.55078125 C-14.22967437 73.66079376 -14.24987221 75.77192688 -14.375 79.625 C-14.61805556 85.86805556 -14.61805556 85.86805556 -15.6875 86.9375 C-18.53085048 87.03736975 -21.34447163 87.07627881 -24.1875 87.0625 C-25.38439453 87.06830078 -25.38439453 87.06830078 -26.60546875 87.07421875 C-32.56089233 87.06410767 -32.56089233 87.06410767 -33.6875 85.9375 C-33.77517112 83.86487924 -33.79445873 81.78929706 -33.78515625 79.71484375 C-33.78193359 78.45478516 -33.77871094 77.19472656 -33.77539062 75.89648438 C-33.76703403 74.55598891 -33.75856907 73.21549412 -33.75 71.875 C-33.7449866 70.53060058 -33.74042342 69.1861994 -33.73632812 67.84179688 C-33.72449488 64.54032059 -33.70800971 61.23893197 -33.6875 57.9375 C-34.61199951 57.95925293 -34.61199951 57.95925293 -35.55517578 57.98144531 C-36.76923096 57.99836426 -36.76923096 57.99836426 -38.0078125 58.015625 C-38.80977051 58.03012695 -39.61172852 58.04462891 -40.43798828 58.05957031 C-44.51479346 57.83834147 -46.74406696 55.94832112 -49.4375 53.0625 C-50.90071622 50.57503242 -51.47656066 48.82033763 -51.6875 45.9375 C-50.61051739 41.92329209 -49.08618074 39.34144492 -45.6875 36.9375 C-42.05229164 36.00902687 -38.40539688 35.42467269 -34.6875 34.9375 C-34.62691406 33.64972656 -34.56632812 32.36195312 -34.50390625 31.03515625 C-34.41951753 29.35675841 -34.3348687 27.67837364 -34.25 26 C-34.21068359 25.14986328 -34.17136719 24.29972656 -34.13085938 23.42382812 C-34.08896484 22.61494141 -34.04707031 21.80605469 -34.00390625 20.97265625 C-33.96724854 20.2237915 -33.93059082 19.47492676 -33.89282227 18.70336914 C-33.6875 16.9375 -33.6875 16.9375 -32.6875 15.9375 C-29.99095146 15.86430379 -27.32058542 15.84507463 -24.625 15.875 C-23.86638672 15.87951172 -23.10777344 15.88402344 -22.32617188 15.88867188 C-20.44658129 15.9004932 -18.56703101 15.91842922 -16.6875 15.9375 C-16.74550781 15.28523438 -16.80351563 14.63296875 -16.86328125 13.9609375 C-17.27787238 5.92971498 -17.27787238 5.92971498 -14.375 2.375 C-9.9883402 -1.60359843 -5.50370469 -2.17588325 0 0 Z " fill="#FAB0B0" transform="translate(71.6875,49.0625)"/>
<path d="M0 0 C1.64574566 -0.02688151 3.29161413 -0.04634123 4.9375 -0.0625 C5.85402344 -0.07410156 6.77054688 -0.08570312 7.71484375 -0.09765625 C10 0 10 0 11 1 C11.08758003 2.99964982 11.10696576 5.0023611 11.09765625 7.00390625 C11.09443359 8.21884766 11.09121094 9.43378906 11.08789062 10.68554688 C11.07951172 11.96494141 11.07113281 13.24433594 11.0625 14.5625 C11.05798828 15.84576172 11.05347656 17.12902344 11.04882812 18.45117188 C11.03699555 21.6341342 11.01905944 24.81707274 11 28 C17.93 27.01 17.93 27.01 25 26 C25 23.69 25 21.38 25 19 C25.48190174 16.56037242 26.22512737 14.37304743 27 12 C27.66 12 28.32 12 29 12 C28.85980308 14.81288705 28.71312045 17.62516885 28.5625 20.4375 C28.52318359 21.23994141 28.48386719 22.04238281 28.44335938 22.86914062 C28.11328125 28.88671875 28.11328125 28.88671875 27 30 C24.15664952 30.09986975 21.34302837 30.13877881 18.5 30.125 C17.30310547 30.13080078 17.30310547 30.13080078 16.08203125 30.13671875 C10.12660767 30.12660767 10.12660767 30.12660767 9 29 C8.91232888 26.92737924 8.89304127 24.85179706 8.90234375 22.77734375 C8.90556641 21.51728516 8.90878906 20.25722656 8.91210938 18.95898438 C8.92046597 17.61848891 8.92893093 16.27799412 8.9375 14.9375 C8.9425134 13.59310058 8.94707658 12.2486994 8.95117188 10.90429688 C8.96300512 7.60282059 8.97949029 4.30143197 9 1 C6.03 1 3.06 1 0 1 C0 0.67 0 0.34 0 0 Z " fill="#D9A7AB" transform="translate(29,106)"/>
<path d="M0 0 C0 2.90791416 -0.18912286 5.72854049 -0.4375 8.625 C-0.51871094 9.60726562 -0.59992188 10.58953125 -0.68359375 11.6015625 C-1 14 -1 14 -2 15 C-4.35313555 15.07271741 -6.70833668 15.08370868 -9.0625 15.0625 C-10.35285156 15.05347656 -11.64320312 15.04445313 -12.97265625 15.03515625 C-13.97167969 15.02355469 -14.97070312 15.01195313 -16 15 C-15.95359375 15.79664062 -15.9071875 16.59328125 -15.859375 17.4140625 C-15.52759345 27.15422084 -15.52759345 27.15422084 -17.75 30.6875 C-19.94240213 32.94080219 -20.90678308 33.77905593 -24 34 C-24 33.34 -24 32.68 -24 32 C-23.36578125 31.75765625 -22.7315625 31.5153125 -22.078125 31.265625 C-19.85632625 30.18944649 -19.85632625 30.18944649 -19.171875 28.046875 C-19.03265625 27.28890625 -18.8934375 26.5309375 -18.75 25.75 C-18.60175781 24.94949219 -18.45351562 24.14898437 -18.30078125 23.32421875 C-17.93967237 20.53383197 -17.93146308 17.81001383 -18 15 C-17.67 14.34 -17.34 13.68 -17 13 C-12.38 13 -7.76 13 -3 13 C-3.061875 11.783125 -3.12375 10.56625 -3.1875 9.3125 C-3.20822824 5.42249954 -2.37275814 3.16367751 0 0 Z " fill="#C18D9D" transform="translate(126,52)"/>
<path d="M0 0 C0.33 0 0.66 0 1 0 C1.02685412 2.31243792 1.04632841 4.6249627 1.0625 6.9375 C1.07410156 8.22527344 1.08570312 9.51304687 1.09765625 10.83984375 C1 14 1 14 0 15 C-2.18292774 15.23481693 -4.37203174 15.41363323 -6.5625 15.5625 C-7.76003906 15.64628906 -8.95757812 15.73007813 -10.19140625 15.81640625 C-11.11824219 15.87699219 -12.04507813 15.93757812 -13 16 C-13.10957031 16.77085937 -13.21914062 17.54171875 -13.33203125 18.3359375 C-13.49058594 19.33882812 -13.64914063 20.34171875 -13.8125 21.375 C-13.96332031 22.37273437 -14.11414063 23.37046875 -14.26953125 24.3984375 C-15 27 -15 27 -18 29 C-17.505 27.515 -17.505 27.515 -17 26 C-16.69760965 23.13569136 -16.49234231 20.27080066 -16.28125 17.3984375 C-16 15 -16 15 -15 14 C-12.64686445 13.92728259 -10.29166332 13.91629132 -7.9375 13.9375 C-6.64714844 13.94652344 -5.35679688 13.95554688 -4.02734375 13.96484375 C-3.02832031 13.97644531 -2.02929688 13.98804688 -1 14 C-1.01160156 13.15695313 -1.02320312 12.31390625 -1.03515625 11.4453125 C-1.04417969 10.34960938 -1.05320312 9.25390625 -1.0625 8.125 C-1.07410156 7.03445312 -1.08570312 5.94390625 -1.09765625 4.8203125 C-1 2 -1 2 0 0 Z " fill="#C59499" transform="translate(125,121)"/>
<path d="M0 0 C1.86665819 5.59997457 0.16656096 11.64731999 -2 17 C-2.66 17.66 -3.32 18.32 -4 19 C-4.66 18.01 -5.32 17.02 -6 16 C-8.88595946 15.41518879 -8.88595946 15.41518879 -12.125 15.3125 C-14.06375 15.209375 -16.0025 15.10625 -18 15 C-18 20.61 -18 26.22 -18 32 C-18.99 31.67 -19.98 31.34 -21 31 C-20.34 31 -19.68 31 -19 31 C-19 25.39 -19 19.78 -19 14 C-11.08 13.505 -11.08 13.505 -3 13 C-2.814375 10.6178125 -2.814375 10.6178125 -2.625 8.1875 C-2.33817465 4.50657469 -2.10827055 3.16240582 0 0 Z " fill="#FCBCC0" transform="translate(58,53)"/>
<path d="M0 0 C2.4294516 3.6441774 2.16179575 5.71241272 2 10 C3.39025391 9.98259766 3.39025391 9.98259766 4.80859375 9.96484375 C6.00613281 9.95582031 7.20367187 9.94679688 8.4375 9.9375 C9.63246094 9.92589844 10.82742187 9.91429688 12.05859375 9.90234375 C15 10 15 10 16 11 C16.07244053 13.01964199 16.08377188 15.04167124 16.0625 17.0625 C16.05347656 18.16722656 16.04445313 19.27195312 16.03515625 20.41015625 C16.02355469 21.26480469 16.01195313 22.11945313 16 23 C15.67 23 15.34 23 15 23 C15 19.37 15 15.74 15 12 C14.00097656 12.01160156 13.00195312 12.02320312 11.97265625 12.03515625 C10.68230469 12.04417969 9.39195313 12.05320312 8.0625 12.0625 C6.77472656 12.07410156 5.48695312 12.08570312 4.16015625 12.09765625 C1 12 1 12 0 11 C-0.07226502 9.14712498 -0.0838122 7.29166122 -0.0625 5.4375 C-0.05347656 4.42558594 -0.04445313 3.41367187 -0.03515625 2.37109375 C-0.02355469 1.58863281 -0.01195313 0.80617187 0 0 Z " fill="#BB8B90" transform="translate(75,55)"/>
<path d="M0 0 C4.875 3.75 4.875 3.75 6 6 C6.58394161 13.12408759 6.58394161 13.12408759 4 17 C3.34 17.66 2.68 18.32 2 19 C1.34 18.67 0.68 18.34 0 18 C0.66 16.35 1.32 14.7 2 13 C2.66 13 3.32 13 4 13 C3.34 10.03 2.68 7.06 2 4 C1.34 4 0.68 4 0 4 C0 3.34 0 2.68 0 2 C-0.66 1.67 -1.32 1.34 -2 1 C-1.34 0.67 -0.68 0.34 0 0 Z " fill="#EAB7BC" transform="translate(173,86)"/>
<path d="M0 0 C0.66 0 1.32 0 2 0 C1.67 5.61 1.34 11.22 1 17 C-1.97 16.67 -4.94 16.34 -8 16 C-8 15.67 -8 15.34 -8 15 C-6.02 14.67 -4.04 14.34 -2 14 C-2.04125 12.989375 -2.0825 11.97875 -2.125 10.9375 C-1.99426157 6.81923948 -1.26749214 3.88169467 0 0 Z " fill="#E3ACAE" transform="translate(56,118)"/>
<path d="M0 0 C1.625 0.75 1.625 0.75 2.9375 2.4375 C3.83965796 5.47203131 3.31845348 7.69880471 2.625 10.75 C0.12201566 7.81171403 -0.84430939 5.57097239 -1.375 1.75 C-7.45908472 1.55185739 -7.45908472 1.55185739 -13.375 2.75 C-10.28340936 -1.88738595 -4.85522171 -0.51107597 0 0 Z " fill="#F2BDBD" transform="translate(72.375,50.25)"/>
<path d="M0 0 C0.99 0.33 1.98 0.66 3 1 C4.98834962 5.39529916 5.19118486 9.22037853 5 14 C7.29629994 15.14814997 9.07698086 15.30769809 11.625 15.5625 C12.44226563 15.64628906 13.25953125 15.73007813 14.1015625 15.81640625 C14.72804688 15.87699219 15.35453125 15.93757812 16 16 C16 16.33 16 16.66 16 17 C11.71 17 7.42 17 3 17 C2.8046875 14.03776042 2.609375 11.07552083 2.4140625 8.11328125 C2.01239911 5.09322731 1.25930981 2.75921946 0 0 Z " fill="#FDC3C8" transform="translate(73,118)"/>
<path d="M0 0 C0.66 0.66 1.32 1.32 2 2 C-2.16312649 5.02772836 -4.94405717 5.09362857 -10 5 C-10.99 5.66 -11.98 6.32 -13 7 C-13.73606499 10.56769552 -13.73606499 10.56769552 -14 14 C-14.33 14 -14.66 14 -15 14 C-15 10.37 -15 6.74 -15 3 C-14.00097656 2.95101562 -13.00195312 2.90203125 -11.97265625 2.8515625 C-10.68230469 2.77679688 -9.39195313 2.70203125 -8.0625 2.625 C-6.77472656 2.55539063 -5.48695312 2.48578125 -4.16015625 2.4140625 C-3.11730469 2.27742188 -2.07445313 2.14078125 -1 2 C-0.67 1.34 -0.34 0.68 0 0 Z " fill="#FDBCBF" transform="translate(125,64)"/>
<path d="M0 0 C5.4852071 0.60946746 5.4852071 0.60946746 7.8125 2.375 C10.01387444 5.38740712 10.11457263 8.09448832 10.0625 11.6875 C10.05347656 12.49574219 10.04445312 13.30398437 10.03515625 14.13671875 C10.02355469 14.75160156 10.01195312 15.36648437 10 16 C9.67 16 9.34 16 9 16 C8.90203125 15.32453125 8.8040625 14.6490625 8.703125 13.953125 C7.63079297 7.02434999 7.63079297 7.02434999 3 2 C2.01 1.34 1.02 0.68 0 0 Z " fill="#FCBDC0" transform="translate(134,50)"/>
<path d="M0 0 C0.66 0 1.32 0 2 0 C2 0.66 2 1.32 2 2 C2.9075 1.79375 3.815 1.5875 4.75 1.375 C8.19839732 0.977108 9.15085182 1.2315632 12 3 C12.99 3.33 13.98 3.66 15 4 C11.31219923 5.84390038 7.01510347 5.62590336 3 5 C0.875 2.5 0.875 2.5 0 0 Z " fill="#EFB9BD" transform="translate(90,147)"/>
<path d="M0 0 C5.94 0.99 5.94 0.99 12 2 C12 2.99 12 3.98 12 5 C11.34 4.67 10.68 4.34 10 4 C8.12620395 3.92966231 6.24998898 3.9156978 4.375 3.9375 C2.87066406 3.95103516 2.87066406 3.95103516 1.3359375 3.96484375 C0.17964844 3.98224609 0.17964844 3.98224609 -1 4 C-0.67 2.68 -0.34 1.36 0 0 Z " fill="#F9BDC0" transform="translate(60,113)"/>
<path d="M0 0 C0.99 1.32 1.98 2.64 3 4 C-0.53411321 6.12046792 -3.94393835 6.53199289 -8 7 C-6 5 -6 5 -4 4.0625 C-1.67868591 3.03213141 -1.67868591 3.03213141 0 0 Z " fill="#F9B9BB" transform="translate(109,80)"/>
<path d="M0 0 C1.32 0.33 2.64 0.66 4 1 C2.625 2.5 2.625 2.5 1 4 C0.34 4 -0.32 4 -1 4 C-1 5.98 -1 7.96 -1 10 C-1.33 10 -1.66 10 -2 10 C-2.25 3.375 -2.25 3.375 0 0 Z " fill="#FCBCBE" transform="translate(24,89)"/>
</svg>
